<svg xmlns="http://www.w3.org/2000/svg" width="176" height="56" viewBox="0 0 176 56">
    <g fill="none" fill-rule="evenodd">
        <g>
            <path fill="#DA1A35" d="M42.7 35.2c0-.2.2-.3.3-.3l7.9.5c.2 0 .3.2.3.4l-1 7c0 .2-.2.5-.3.6l-3.6 4.5c-.1.2-.4.3-.6.4L37 51.6c-.2.1-.5 0-.6-.1L27 44.9c-.2-.1-.4-.1-.6 0l-2.2 1.7c-.2.1-.3.1-.3-.1l1-10.6c0-.2.2-.4.4-.4h11.9c.2 0 .2.1.1.2L35 37.5c-.2.1-.2.3 0 .5l3.9 3.7c.1.1.4.2.6.2l2.8-.2c.2 0 .4-.2.3-.4l.1-6.1zM27.4 4.8c-.2.1-.2.2-.1.4l5.5 7.3c.1.2.3.2.5.1l5.3-4.1c.2-.1.4-.2.6-.1l3.5.9c.2.1.3.3.3.5v15.3c0 .2-.2.4-.4.4h-3.2c-.2 0-.3.1-.1.3l7.2 8c.1.1.3.1.5 0l6.7-8c.1-.1.1-.3-.1-.3h-3.3c-.2 0-.3-.2-.3-.4l2-19.7c0-.2-.1-.5-.2-.6L49 1.7c-.1-.2-.4-.3-.6-.3l-6.6-1c-.2 0-.5 0-.7.1L27.4 4.8zM18.4 7.3c-.1-.2 0-.3.2-.2l10.2 2.2c.2 0 .3.2.2.4l-3.9 9.6c-.1.2-.2.2-.3 0l-2-3.2c-.1-.2-.3-.2-.5-.2l-10.6 4.9c-.2.1-.3.3-.2.5l.4 1.5c0 .2.2.4.4.5l17.4 7c.2.1.2.2 0 .3l-12.2 8.5c-.2.1-.4.1-.6 0L1.7 26.7c-.2-.1-.3-.4-.4-.6L.1 23.2c-.1-.2-.1-.5 0-.7l2.4-6.2c.1-.2.3-.4.5-.5l16.5-6c.2-.1.3-.3.2-.4l-1.3-2.1z" transform="translate(1 2)"/>
            <path fill="#009B34" d="M171.3 18.1h-10.6s-7 18.9-7.6 20.5c-.7-1.6-8.8-20.4-8.8-20.4h-11.6l14.9 32.4h10.5l13.7-32.5h-.5z" transform="translate(1 2)"/>
            <path stroke="#00953B" stroke-width=".028" d="M171.4 18.1h-10.6s-7 18.9-7.7 20.5c-.7-1.6-8.8-20.4-8.8-20.4h-11.7l15 32.5h10.6L172 18.1h-.6z" transform="translate(1 2)"/>
            <path fill="#009B34" d="M62.2 21.3c-1.8 1.8-2.8 4.2-2.8 6.7 0 7.9 9.3 8.8 16.7 9.5 4 .4 7.8.8 8.4 2.2.1.2.1.4.1.5 0 .3-.1.5-.3.7-1 1.3-4.1 2.1-8.1 1.9-9-.4-12.8-3.8-12.8-3.8l-.4-.4-.2.6-2.4 7 .2.2c.1 0 5.6 4.9 15.9 4.9 6.2 0 10.9-1.2 13.9-3.7 3.2-2.6 3.9-5.8 3.9-8 0-9.1-10-9.9-17.3-10.6-4.1-.4-7.9-.7-7.9-2.3 0-.4.2-.8.5-1.1.6-.6 2.4-1.5 7.9-1.3 3.9.2 8.3 1.4 11.2 2.4l.7.3 1.7-7.6-.7-.1-.6-.2C88 18.5 83.3 17 74.9 17c-5.5 0-10 1.6-12.7 4.3M107.8 38.5h6l7.3 12h11.3l-8.2-12.4c5.1-1.4 8-4.4 8-9.8 0-6.4-4-10.3-13.2-10.3H97.7v32.4h10.1V38.5zm0-6.8v-7.1h9.7s2.8-.2 4.1 1.8c1.1 1.7.4 3.5-.4 4.2-1.2 1.2-3.7 1.1-3.7 1.1h-9.7z" transform="translate(1 2)"/>
        </g>
    </g>
</svg>
